<svg xmlns="http://www.w3.org/2000/svg" xmlns:xlink="http://www.w3.org/1999/xlink" width="500" zoomAndPan="magnify" viewBox="0 0 375 374.999991" height="500" preserveAspectRatio="xMidYMid meet" version="1.0"><defs><clipPath id="9afd441d37"><path d="M 66.394531 141 L 358 141 L 358 245 L 66.394531 245 Z M 66.394531 141 " clip-rule="nonzero"/></clipPath><clipPath id="701a1c482d"><path d="M 12 141 L 77.453125 141 L 77.453125 190.511719 L 12 190.511719 Z M 12 141 " clip-rule="nonzero"/></clipPath><clipPath id="00951bdfe9"><path d="M 12 167.429688 L 65.878906 167.429688 L 65.878906 236.867188 L 12 236.867188 Z M 12 167.429688 " clip-rule="nonzero"/></clipPath><clipPath id="49f9e3c40b"><path d="M 336.386719 141 L 358 141 L 358 245 L 336.386719 245 Z M 336.386719 141 " clip-rule="nonzero"/></clipPath><clipPath id="1f9f898184"><path d="M 212.964844 146.664062 L 250.355469 146.664062 L 250.355469 187.617188 L 212.964844 187.617188 Z M 212.964844 146.664062 " clip-rule="nonzero"/></clipPath></defs><g clip-path="url(#9afd441d37)"><path fill="#ffffff" d="M 80.75 142.246094 C 80.472656 142.519531 80.246094 144.714844 80.246094 147.121094 L 80.246094 151.496094 L 92.058594 151.582031 C 144.25 151.96875 225.660156 151.878906 226.917969 151.4375 C 228.46875 150.886719 230.242188 146.570312 230.242188 143.347656 L 230.242188 141.746094 L 155.746094 141.746094 C 114.773438 141.746094 81.023438 141.972656 80.75 142.246094 M 233.015625 142.308594 C 232.839844 142.617188 233.242188 144.886719 233.90625 147.355469 L 235.117188 151.835938 L 259.304688 151.945312 L 283.492188 152.050781 L 283.492188 141.746094 L 258.414062 141.746094 C 244.617188 141.746094 233.1875 142 233.015625 142.308594 M 47.726562 144.933594 C 46.132812 148.625 44.527344 152.3125 42.914062 155.996094 C 27.097656 192.179688 12 227.332031 12 227.972656 C 12 228.414062 13.890625 228.742188 16.417969 228.742188 L 20.835938 228.742188 L 22.023438 225.777344 C 22.675781 224.144531 23.871094 221.359375 24.671875 219.589844 C 28.023438 212.210938 30.101562 207.445312 31.890625 203.039062 C 32.933594 200.472656 34.078125 197.839844 34.4375 197.195312 C 34.796875 196.550781 37.5 190.304688 40.445312 183.320312 C 43.390625 176.335938 46.074219 170.113281 46.40625 169.496094 C 47.5 167.476562 57.75 143.546875 57.75 143.011719 C 57.75 142.730469 55.726562 142.496094 53.257812 142.496094 C 48.90625 142.496094 48.738281 142.570312 47.726562 144.933594 M 68.117188 144.558594 C 67.40625 146.253906 66.679688 147.941406 65.929688 149.621094 C 65.195312 151.269531 60.65625 161.734375 55.84375 172.871094 C 51.03125 184.007812 46.285156 194.898438 45.296875 197.074219 C 44.308594 199.25 42.644531 203.132812 41.59375 205.699219 C 39.507812 210.796875 39.523438 210.761719 35.6875 219.152344 C 34.234375 222.332031 32.828125 225.789062 32.566406 226.839844 C 32.09375 228.71875 32.140625 228.742188 36.585938 228.742188 C 39.488281 228.742188 41.222656 228.410156 41.46875 227.804688 C 41.675781 227.292969 49.847656 208.476562 59.628906 185.996094 C 69.40625 163.515625 77.582031 144.53125 77.789062 143.808594 C 78.125 142.660156 77.601562 142.496094 73.570312 142.496094 C 69.253906 142.496094 68.914062 142.625 68.117188 144.558594 M 290.242188 185.246094 L 290.242188 228.066406 L 294.929688 227.84375 L 299.617188 227.617188 L 299.992188 207.617188 L 300.367188 187.621094 L 302.617188 184.449219 C 306.53125 178.929688 313.179688 176.898438 318 179.742188 C 321.878906 182.035156 322.074219 183.195312 322.484375 206.246094 L 322.867188 227.617188 L 327.554688 227.84375 L 332.242188 228.066406 L 332.242188 205.984375 C 332.242188 186.082031 332.09375 183.429688 330.753906 179.085938 C 328.351562 171.316406 323.210938 167.261719 315.734375 167.25 C 310.199219 167.242188 304.527344 170.03125 301.785156 174.117188 C 300.367188 176.230469 300.367188 176.214844 299.992188 159.550781 L 299.617188 142.871094 L 290.242188 142.425781 Z M 80.246094 163.121094 L 80.246094 167.996094 L 107.355469 167.996094 L 107.113281 187.683594 C 106.859375 208.34375 106.761719 208.96875 103.214844 212.871094 C 98.519531 218.035156 87.476562 218.035156 82.777344 212.871094 C 80.496094 210.359375 79.71875 208.59375 79.113281 204.558594 L 78.578125 200.996094 L 73.414062 200.996094 C 70.574219 200.996094 68.25 201.21875 68.25 201.496094 C 68.25 201.769531 68.628906 204.21875 69.09375 206.933594 C 71.351562 220.074219 79.3125 226.523438 93.214844 226.46875 C 104.074219 226.425781 110.527344 222.980469 114.925781 214.875 L 117.371094 210.371094 L 117.605469 184.308594 L 117.835938 158.246094 L 80.246094 158.246094 Z M 172.496094 193.902344 L 172.496094 228.0625 L 182.621094 227.617188 L 182.828125 215.433594 L 183.03125 203.246094 L 200.671875 203.246094 L 206.671875 215.433594 L 212.675781 227.617188 L 218.082031 227.839844 C 221.414062 227.976562 223.492188 227.765625 223.492188 227.292969 C 223.492188 226.871094 220.792969 221.089844 217.492188 214.449219 C 214.195312 207.804688 211.496094 201.914062 211.496094 201.359375 C 211.496094 200.800781 212.15625 200.136719 212.96875 199.878906 C 215.191406 199.171875 220.371094 192.914062 221.277344 189.835938 C 222.539062 185.550781 222.957031 179.054688 222.113281 176.886719 C 221.121094 174.335938 215.40625 171.601562 207.253906 169.78125 L 201.140625 168.417969 L 207.839844 166.808594 C 211.523438 165.925781 214.707031 165.03125 214.914062 164.824219 C 215.121094 164.617188 214.414062 163.875 213.34375 163.171875 C 209.652344 160.753906 202.058594 159.773438 186.933594 159.757812 L 172.496094 159.746094 Z M 138.746094 167.691406 C 133.238281 169.152344 129.132812 172.199219 126.222656 176.980469 C 118.546875 189.597656 120.640625 212.816406 130.207031 221.21875 C 137.707031 227.804688 152.398438 228.191406 159.878906 222.003906 C 162.839844 219.554688 167.246094 211.628906 167.246094 208.75 C 167.246094 207.105469 166.960938 206.996094 162.761719 206.996094 C 158.335938 206.996094 158.257812 207.03125 156.832031 209.808594 C 154.722656 213.914062 151.410156 215.601562 145.441406 215.609375 C 137.574219 215.625 133.078125 211.789062 131.601562 203.808594 L 131.078125 200.996094 L 167.246094 200.996094 L 167.246094 193.9375 C 167.246094 178.683594 161.28125 169.785156 149.398438 167.320312 C 144.5 166.304688 143.882812 166.324219 138.746094 167.6875 M 260.617188 167.945312 C 261.785156 168.410156 261.121094 168.75 257.617188 169.472656 C 250.628906 170.921875 248.714844 171.996094 246.109375 175.933594 C 242.328125 181.636719 240.742188 187.875 240.742188 197.027344 C 240.742188 217.296875 248.683594 227.554688 264.367188 227.554688 C 276.542969 227.554688 284.28125 221.082031 286.03125 209.433594 L 286.511719 206.246094 L 281.71875 206.246094 C 277.050781 206.246094 276.917969 206.296875 276.5 208.390625 C 275.136719 215.203125 265.835938 218.765625 258.367188 215.332031 C 252.175781 212.492188 250.273438 208.242188 250.246094 197.199219 C 250.226562 190.472656 250.480469 188.746094 251.921875 185.765625 C 254.34375 180.761719 257.214844 178.964844 263.320312 178.617188 C 270.394531 178.21875 273.371094 179.75 275.792969 185.039062 L 277.636719 189.066406 L 281.875 188.84375 L 286.117188 188.621094 L 285.886719 185.246094 C 285.585938 180.820312 282.339844 174.390625 279.015625 171.644531 C 277.558594 170.4375 274.703125 168.957031 272.667969 168.347656 C 268.832031 167.203125 257.824219 166.835938 260.617188 167.945312 M 182.996094 181.4375 L 182.996094 193.496094 L 193.105469 193.496094 C 205.402344 193.496094 208.546875 192.550781 210.777344 188.179688 C 212.585938 184.636719 212.636719 179.078125 210.894531 175.496094 C 208.734375 171.046875 205.328125 169.910156 193.308594 169.625 L 182.996094 169.382812 Z M 140.761719 177.910156 C 135.839844 179.214844 131.246094 185.632812 131.246094 191.203125 C 131.246094 191.730469 135.761719 191.996094 144.746094 191.996094 C 159.8125 191.996094 159.054688 192.316406 157.460938 186.582031 C 156.273438 182.296875 153.417969 179.429688 149.054688 178.132812 C 144.761719 176.859375 144.726562 176.855469 140.761719 177.910156 M 235.394531 184.871094 C 234.722656 186.519531 233.738281 189.894531 233.214844 192.371094 C 231.957031 198.265625 231.296875 198.867188 230.664062 194.675781 C 230.382812 192.785156 229.523438 189.46875 228.753906 187.304688 L 227.351562 183.371094 L 227.296875 205.683594 L 227.242188 227.992188 L 231.765625 227.992188 C 234.714844 227.992188 236.417969 227.664062 236.652344 227.046875 C 236.851562 226.527344 236.925781 216.148438 236.816406 203.984375 C 236.625 182.707031 236.570312 181.984375 235.394531 184.871094 M 343.867188 187.597656 C 341.664062 188.910156 341.265625 189.777344 341.253906 193.253906 C 341.242188 195.753906 341.640625 196.699219 343.21875 197.941406 C 346.429688 200.46875 354.46875 199.863281 356.417969 196.945312 C 357.347656 195.546875 357.050781 190.109375 355.957031 188.617188 C 354.691406 186.886719 346.253906 186.175781 343.867188 187.597656 M 343.867188 216.890625 C 341.675781 218.132812 341.265625 219.015625 341.253906 222.503906 C 341.238281 226.007812 342.523438 227.757812 345.605469 228.429688 C 349.210938 229.21875 349.492188 229.425781 349.492188 231.296875 C 349.492188 235.183594 348.246094 236.855469 344.839844 237.527344 C 341.6875 238.152344 341.617188 238.234375 341.617188 241.140625 L 341.617188 244.117188 L 345.65625 243.898438 C 347.875 243.777344 350.800781 243.214844 352.160156 242.648438 C 356.003906 241.042969 357.050781 238.734375 357.511719 230.851562 C 358.007812 222.324219 357.050781 218.105469 354.332031 216.867188 C 351.910156 215.761719 345.832031 215.773438 343.867188 216.890625 " fill-opacity="1" fill-rule="evenodd"/></g><g clip-path="url(#701a1c482d)"><path fill="#6db3ed" d="M 80.75 142.246094 C 80.472656 142.519531 80.246094 144.714844 80.246094 147.121094 L 80.246094 151.496094 L 92.058594 151.582031 C 144.25 151.96875 225.660156 151.878906 226.917969 151.4375 C 228.46875 150.886719 230.242188 146.570312 230.242188 143.347656 L 230.242188 141.746094 L 155.746094 141.746094 C 114.773438 141.746094 81.023438 141.972656 80.75 142.246094 M 233.015625 142.308594 C 232.839844 142.617188 233.242188 144.886719 233.90625 147.355469 L 235.117188 151.835938 L 259.304688 151.945312 L 283.492188 152.050781 L 283.492188 141.746094 L 258.414062 141.746094 C 244.617188 141.746094 233.1875 142 233.015625 142.308594 M 47.726562 144.933594 C 46.132812 148.625 44.527344 152.3125 42.914062 155.996094 C 27.097656 192.179688 12 227.332031 12 227.972656 C 12 228.414062 13.890625 228.742188 16.417969 228.742188 L 20.835938 228.742188 L 22.023438 225.777344 C 22.675781 224.144531 23.871094 221.359375 24.671875 219.589844 C 28.023438 212.210938 30.101562 207.445312 31.890625 203.039062 C 32.933594 200.472656 34.078125 197.839844 34.4375 197.195312 C 34.796875 196.550781 37.5 190.304688 40.445312 183.320312 C 43.390625 176.335938 46.074219 170.113281 46.40625 169.496094 C 47.5 167.476562 57.75 143.546875 57.75 143.011719 C 57.75 142.730469 55.726562 142.496094 53.257812 142.496094 C 48.90625 142.496094 48.738281 142.570312 47.726562 144.933594 M 68.117188 144.558594 C 67.40625 146.253906 66.679688 147.941406 65.929688 149.621094 C 65.195312 151.269531 60.65625 161.734375 55.84375 172.871094 C 51.03125 184.007812 46.285156 194.898438 45.296875 197.074219 C 44.308594 199.25 42.644531 203.132812 41.59375 205.699219 C 39.507812 210.796875 39.523438 210.761719 35.6875 219.152344 C 34.234375 222.332031 32.828125 225.789062 32.566406 226.839844 C 32.09375 228.71875 32.140625 228.742188 36.585938 228.742188 C 39.488281 228.742188 41.222656 228.410156 41.46875 227.804688 C 41.675781 227.292969 49.847656 208.476562 59.628906 185.996094 C 69.40625 163.515625 77.582031 144.53125 77.789062 143.808594 C 78.125 142.660156 77.601562 142.496094 73.570312 142.496094 C 69.253906 142.496094 68.914062 142.625 68.117188 144.558594 M 290.242188 185.246094 L 290.242188 228.066406 L 294.929688 227.84375 L 299.617188 227.617188 L 299.992188 207.617188 L 300.367188 187.621094 L 302.617188 184.449219 C 306.53125 178.929688 313.179688 176.898438 318 179.742188 C 321.878906 182.035156 322.074219 183.195312 322.484375 206.246094 L 322.867188 227.617188 L 327.554688 227.84375 L 332.242188 228.066406 L 332.242188 205.984375 C 332.242188 186.082031 332.09375 183.429688 330.753906 179.085938 C 328.351562 171.316406 323.210938 167.261719 315.734375 167.25 C 310.199219 167.242188 304.527344 170.03125 301.785156 174.117188 C 300.367188 176.230469 300.367188 176.214844 299.992188 159.550781 L 299.617188 142.871094 L 290.242188 142.425781 Z M 80.246094 163.121094 L 80.246094 167.996094 L 107.355469 167.996094 L 107.113281 187.683594 C 106.859375 208.34375 106.761719 208.96875 103.214844 212.871094 C 98.519531 218.035156 87.476562 218.035156 82.777344 212.871094 C 80.496094 210.359375 79.71875 208.59375 79.113281 204.558594 L 78.578125 200.996094 L 73.414062 200.996094 C 70.574219 200.996094 68.25 201.21875 68.25 201.496094 C 68.25 201.769531 68.628906 204.21875 69.09375 206.933594 C 71.351562 220.074219 79.3125 226.523438 93.214844 226.46875 C 104.074219 226.425781 110.527344 222.980469 114.925781 214.875 L 117.371094 210.371094 L 117.605469 184.308594 L 117.835938 158.246094 L 80.246094 158.246094 Z M 172.496094 193.902344 L 172.496094 228.0625 L 182.621094 227.617188 L 182.828125 215.433594 L 183.03125 203.246094 L 200.671875 203.246094 L 206.671875 215.433594 L 212.675781 227.617188 L 218.082031 227.839844 C 221.414062 227.976562 223.492188 227.765625 223.492188 227.292969 C 223.492188 226.871094 220.792969 221.089844 217.492188 214.449219 C 214.195312 207.804688 211.496094 201.914062 211.496094 201.359375 C 211.496094 200.800781 212.15625 200.136719 212.96875 199.878906 C 215.191406 199.171875 220.371094 192.914062 221.277344 189.835938 C 222.539062 185.550781 222.957031 179.054688 222.113281 176.886719 C 221.121094 174.335938 215.40625 171.601562 207.253906 169.78125 L 201.140625 168.417969 L 207.839844 166.808594 C 211.523438 165.925781 214.707031 165.03125 214.914062 164.824219 C 215.121094 164.617188 214.414062 163.875 213.34375 163.171875 C 209.652344 160.753906 202.058594 159.773438 186.933594 159.757812 L 172.496094 159.746094 Z M 138.746094 167.691406 C 133.238281 169.152344 129.132812 172.199219 126.222656 176.980469 C 118.546875 189.597656 120.640625 212.816406 130.207031 221.21875 C 137.707031 227.804688 152.398438 228.191406 159.878906 222.003906 C 162.839844 219.554688 167.246094 211.628906 167.246094 208.75 C 167.246094 207.105469 166.960938 206.996094 162.761719 206.996094 C 158.335938 206.996094 158.257812 207.03125 156.832031 209.808594 C 154.722656 213.914062 151.410156 215.601562 145.441406 215.609375 C 137.574219 215.625 133.078125 211.789062 131.601562 203.808594 L 131.078125 200.996094 L 167.246094 200.996094 L 167.246094 193.9375 C 167.246094 178.683594 161.28125 169.785156 149.398438 167.320312 C 144.5 166.304688 143.882812 166.324219 138.746094 167.6875 M 260.617188 167.945312 C 261.785156 168.410156 261.121094 168.75 257.617188 169.472656 C 250.628906 170.921875 248.714844 171.996094 246.109375 175.933594 C 242.328125 181.636719 240.742188 187.875 240.742188 197.027344 C 240.742188 217.296875 248.683594 227.554688 264.367188 227.554688 C 276.542969 227.554688 284.28125 221.082031 286.03125 209.433594 L 286.511719 206.246094 L 281.71875 206.246094 C 277.050781 206.246094 276.917969 206.296875 276.5 208.390625 C 275.136719 215.203125 265.835938 218.765625 258.367188 215.332031 C 252.175781 212.492188 250.273438 208.242188 250.246094 197.199219 C 250.226562 190.472656 250.480469 188.746094 251.921875 185.765625 C 254.34375 180.761719 257.214844 178.964844 263.320312 178.617188 C 270.394531 178.21875 273.371094 179.75 275.792969 185.039062 L 277.636719 189.066406 L 281.875 188.84375 L 286.117188 188.621094 L 285.886719 185.246094 C 285.585938 180.820312 282.339844 174.390625 279.015625 171.644531 C 277.558594 170.4375 274.703125 168.957031 272.667969 168.347656 C 268.832031 167.203125 257.824219 166.835938 260.617188 167.945312 M 182.996094 181.4375 L 182.996094 193.496094 L 193.105469 193.496094 C 205.402344 193.496094 208.546875 192.550781 210.777344 188.179688 C 212.585938 184.636719 212.636719 179.078125 210.894531 175.496094 C 208.734375 171.046875 205.328125 169.910156 193.308594 169.625 L 182.996094 169.382812 Z M 140.761719 177.910156 C 135.839844 179.214844 131.246094 185.632812 131.246094 191.203125 C 131.246094 191.730469 135.761719 191.996094 144.746094 191.996094 C 159.8125 191.996094 159.054688 192.316406 157.460938 186.582031 C 156.273438 182.296875 153.417969 179.429688 149.054688 178.132812 C 144.761719 176.859375 144.726562 176.855469 140.761719 177.910156 M 235.394531 184.871094 C 234.722656 186.519531 233.738281 189.894531 233.214844 192.371094 C 231.957031 198.265625 231.296875 198.867188 230.664062 194.675781 C 230.382812 192.785156 229.523438 189.46875 228.753906 187.304688 L 227.351562 183.371094 L 227.296875 205.683594 L 227.242188 227.992188 L 231.765625 227.992188 C 234.714844 227.992188 236.417969 227.664062 236.652344 227.046875 C 236.851562 226.527344 236.925781 216.148438 236.816406 203.984375 C 236.625 182.707031 236.570312 181.984375 235.394531 184.871094 M 343.867188 187.597656 C 341.664062 188.910156 341.265625 189.777344 341.253906 193.253906 C 341.242188 195.753906 341.640625 196.699219 343.21875 197.941406 C 346.429688 200.46875 354.46875 199.863281 356.417969 196.945312 C 357.347656 195.546875 357.050781 190.109375 355.957031 188.617188 C 354.691406 186.886719 346.253906 186.175781 343.867188 187.597656 M 343.867188 216.890625 C 341.675781 218.132812 341.265625 219.015625 341.253906 222.503906 C 341.238281 226.007812 342.523438 227.757812 345.605469 228.429688 C 349.210938 229.21875 349.492188 229.425781 349.492188 231.296875 C 349.492188 235.183594 348.246094 236.855469 344.839844 237.527344 C 341.6875 238.152344 341.617188 238.234375 341.617188 241.140625 L 341.617188 244.117188 L 345.65625 243.898438 C 347.875 243.777344 350.800781 243.214844 352.160156 242.648438 C 356.003906 241.042969 357.050781 238.734375 357.511719 230.851562 C 358.007812 222.324219 357.050781 218.105469 354.332031 216.867188 C 351.910156 215.761719 345.832031 215.773438 343.867188 216.890625 " fill-opacity="1" fill-rule="evenodd"/></g><g clip-path="url(#00951bdfe9)"><path fill="#6db3ed" d="M 80.75 142.246094 C 80.472656 142.519531 80.246094 144.714844 80.246094 147.121094 L 80.246094 151.496094 L 92.058594 151.582031 C 144.25 151.96875 225.660156 151.878906 226.917969 151.4375 C 228.46875 150.886719 230.242188 146.570312 230.242188 143.347656 L 230.242188 141.746094 L 155.746094 141.746094 C 114.773438 141.746094 81.023438 141.972656 80.75 142.246094 M 233.015625 142.308594 C 232.839844 142.617188 233.242188 144.886719 233.90625 147.355469 L 235.117188 151.835938 L 259.304688 151.945312 L 283.492188 152.050781 L 283.492188 141.746094 L 258.414062 141.746094 C 244.617188 141.746094 233.1875 142 233.015625 142.308594 M 47.726562 144.933594 C 46.132812 148.625 44.527344 152.3125 42.914062 155.996094 C 27.097656 192.179688 12 227.332031 12 227.972656 C 12 228.414062 13.890625 228.742188 16.417969 228.742188 L 20.835938 228.742188 L 22.023438 225.777344 C 22.675781 224.144531 23.871094 221.359375 24.671875 219.589844 C 28.023438 212.210938 30.101562 207.445312 31.890625 203.039062 C 32.933594 200.472656 34.078125 197.839844 34.4375 197.195312 C 34.796875 196.550781 37.5 190.304688 40.445312 183.320312 C 43.390625 176.335938 46.074219 170.113281 46.40625 169.496094 C 47.5 167.476562 57.75 143.546875 57.75 143.011719 C 57.75 142.730469 55.726562 142.496094 53.257812 142.496094 C 48.90625 142.496094 48.738281 142.570312 47.726562 144.933594 M 68.117188 144.558594 C 67.40625 146.253906 66.679688 147.941406 65.929688 149.621094 C 65.195312 151.269531 60.65625 161.734375 55.84375 172.871094 C 51.03125 184.007812 46.285156 194.898438 45.296875 197.074219 C 44.308594 199.25 42.644531 203.132812 41.59375 205.699219 C 39.507812 210.796875 39.523438 210.761719 35.6875 219.152344 C 34.234375 222.332031 32.828125 225.789062 32.566406 226.839844 C 32.09375 228.71875 32.140625 228.742188 36.585938 228.742188 C 39.488281 228.742188 41.222656 228.410156 41.46875 227.804688 C 41.675781 227.292969 49.847656 208.476562 59.628906 185.996094 C 69.40625 163.515625 77.582031 144.53125 77.789062 143.808594 C 78.125 142.660156 77.601562 142.496094 73.570312 142.496094 C 69.253906 142.496094 68.914062 142.625 68.117188 144.558594 M 290.242188 185.246094 L 290.242188 228.066406 L 294.929688 227.84375 L 299.617188 227.617188 L 299.992188 207.617188 L 300.367188 187.621094 L 302.617188 184.449219 C 306.53125 178.929688 313.179688 176.898438 318 179.742188 C 321.878906 182.035156 322.074219 183.195312 322.484375 206.246094 L 322.867188 227.617188 L 327.554688 227.84375 L 332.242188 228.066406 L 332.242188 205.984375 C 332.242188 186.082031 332.09375 183.429688 330.753906 179.085938 C 328.351562 171.316406 323.210938 167.261719 315.734375 167.25 C 310.199219 167.242188 304.527344 170.03125 301.785156 174.117188 C 300.367188 176.230469 300.367188 176.214844 299.992188 159.550781 L 299.617188 142.871094 L 290.242188 142.425781 Z M 80.246094 163.121094 L 80.246094 167.996094 L 107.355469 167.996094 L 107.113281 187.683594 C 106.859375 208.34375 106.761719 208.96875 103.214844 212.871094 C 98.519531 218.035156 87.476562 218.035156 82.777344 212.871094 C 80.496094 210.359375 79.71875 208.59375 79.113281 204.558594 L 78.578125 200.996094 L 73.414062 200.996094 C 70.574219 200.996094 68.25 201.21875 68.25 201.496094 C 68.25 201.769531 68.628906 204.21875 69.09375 206.933594 C 71.351562 220.074219 79.3125 226.523438 93.214844 226.46875 C 104.074219 226.425781 110.527344 222.980469 114.925781 214.875 L 117.371094 210.371094 L 117.605469 184.308594 L 117.835938 158.246094 L 80.246094 158.246094 Z M 172.496094 193.902344 L 172.496094 228.0625 L 182.621094 227.617188 L 182.828125 215.433594 L 183.03125 203.246094 L 200.671875 203.246094 L 206.671875 215.433594 L 212.675781 227.617188 L 218.082031 227.839844 C 221.414062 227.976562 223.492188 227.765625 223.492188 227.292969 C 223.492188 226.871094 220.792969 221.089844 217.492188 214.449219 C 214.195312 207.804688 211.496094 201.914062 211.496094 201.359375 C 211.496094 200.800781 212.15625 200.136719 212.96875 199.878906 C 215.191406 199.171875 220.371094 192.914062 221.277344 189.835938 C 222.539062 185.550781 222.957031 179.054688 222.113281 176.886719 C 221.121094 174.335938 215.40625 171.601562 207.253906 169.78125 L 201.140625 168.417969 L 207.839844 166.808594 C 211.523438 165.925781 214.707031 165.03125 214.914062 164.824219 C 215.121094 164.617188 214.414062 163.875 213.34375 163.171875 C 209.652344 160.753906 202.058594 159.773438 186.933594 159.757812 L 172.496094 159.746094 Z M 138.746094 167.691406 C 133.238281 169.152344 129.132812 172.199219 126.222656 176.980469 C 118.546875 189.597656 120.640625 212.816406 130.207031 221.21875 C 137.707031 227.804688 152.398438 228.191406 159.878906 222.003906 C 162.839844 219.554688 167.246094 211.628906 167.246094 208.75 C 167.246094 207.105469 166.960938 206.996094 162.761719 206.996094 C 158.335938 206.996094 158.257812 207.03125 156.832031 209.808594 C 154.722656 213.914062 151.410156 215.601562 145.441406 215.609375 C 137.574219 215.625 133.078125 211.789062 131.601562 203.808594 L 131.078125 200.996094 L 167.246094 200.996094 L 167.246094 193.9375 C 167.246094 178.683594 161.28125 169.785156 149.398438 167.320312 C 144.5 166.304688 143.882812 166.324219 138.746094 167.6875 M 260.617188 167.945312 C 261.785156 168.410156 261.121094 168.75 257.617188 169.472656 C 250.628906 170.921875 248.714844 171.996094 246.109375 175.933594 C 242.328125 181.636719 240.742188 187.875 240.742188 197.027344 C 240.742188 217.296875 248.683594 227.554688 264.367188 227.554688 C 276.542969 227.554688 284.28125 221.082031 286.03125 209.433594 L 286.511719 206.246094 L 281.71875 206.246094 C 277.050781 206.246094 276.917969 206.296875 276.5 208.390625 C 275.136719 215.203125 265.835938 218.765625 258.367188 215.332031 C 252.175781 212.492188 250.273438 208.242188 250.246094 197.199219 C 250.226562 190.472656 250.480469 188.746094 251.921875 185.765625 C 254.34375 180.761719 257.214844 178.964844 263.320312 178.617188 C 270.394531 178.21875 273.371094 179.75 275.792969 185.039062 L 277.636719 189.066406 L 281.875 188.84375 L 286.117188 188.621094 L 285.886719 185.246094 C 285.585938 180.820312 282.339844 174.390625 279.015625 171.644531 C 277.558594 170.4375 274.703125 168.957031 272.667969 168.347656 C 268.832031 167.203125 257.824219 166.835938 260.617188 167.945312 M 182.996094 181.4375 L 182.996094 193.496094 L 193.105469 193.496094 C 205.402344 193.496094 208.546875 192.550781 210.777344 188.179688 C 212.585938 184.636719 212.636719 179.078125 210.894531 175.496094 C 208.734375 171.046875 205.328125 169.910156 193.308594 169.625 L 182.996094 169.382812 Z M 140.761719 177.910156 C 135.839844 179.214844 131.246094 185.632812 131.246094 191.203125 C 131.246094 191.730469 135.761719 191.996094 144.746094 191.996094 C 159.8125 191.996094 159.054688 192.316406 157.460938 186.582031 C 156.273438 182.296875 153.417969 179.429688 149.054688 178.132812 C 144.761719 176.859375 144.726562 176.855469 140.761719 177.910156 M 235.394531 184.871094 C 234.722656 186.519531 233.738281 189.894531 233.214844 192.371094 C 231.957031 198.265625 231.296875 198.867188 230.664062 194.675781 C 230.382812 192.785156 229.523438 189.46875 228.753906 187.304688 L 227.351562 183.371094 L 227.296875 205.683594 L 227.242188 227.992188 L 231.765625 227.992188 C 234.714844 227.992188 236.417969 227.664062 236.652344 227.046875 C 236.851562 226.527344 236.925781 216.148438 236.816406 203.984375 C 236.625 182.707031 236.570312 181.984375 235.394531 184.871094 M 343.867188 187.597656 C 341.664062 188.910156 341.265625 189.777344 341.253906 193.253906 C 341.242188 195.753906 341.640625 196.699219 343.21875 197.941406 C 346.429688 200.46875 354.46875 199.863281 356.417969 196.945312 C 357.347656 195.546875 357.050781 190.109375 355.957031 188.617188 C 354.691406 186.886719 346.253906 186.175781 343.867188 187.597656 M 343.867188 216.890625 C 341.675781 218.132812 341.265625 219.015625 341.253906 222.503906 C 341.238281 226.007812 342.523438 227.757812 345.605469 228.429688 C 349.210938 229.21875 349.492188 229.425781 349.492188 231.296875 C 349.492188 235.183594 348.246094 236.855469 344.839844 237.527344 C 341.6875 238.152344 341.617188 238.234375 341.617188 241.140625 L 341.617188 244.117188 L 345.65625 243.898438 C 347.875 243.777344 350.800781 243.214844 352.160156 242.648438 C 356.003906 241.042969 357.050781 238.734375 357.511719 230.851562 C 358.007812 222.324219 357.050781 218.105469 354.332031 216.867188 C 351.910156 215.761719 345.832031 215.773438 343.867188 216.890625 " fill-opacity="1" fill-rule="evenodd"/></g><g clip-path="url(#49f9e3c40b)"><path fill="#f05e4d" d="M 80.746094 142.246094 C 80.472656 142.519531 80.246094 144.714844 80.246094 147.121094 L 80.246094 151.496094 L 92.058594 151.582031 C 144.25 151.96875 225.660156 151.878906 226.917969 151.4375 C 228.46875 150.886719 230.242188 146.570312 230.242188 143.347656 L 230.242188 141.746094 L 155.746094 141.746094 C 114.773438 141.746094 81.023438 141.972656 80.746094 142.246094 M 233.015625 142.308594 C 232.839844 142.617188 233.242188 144.886719 233.90625 147.355469 L 235.117188 151.835938 L 259.304688 151.945312 L 283.492188 152.050781 L 283.492188 141.746094 L 258.414062 141.746094 C 244.617188 141.746094 233.1875 142 233.015625 142.308594 M 47.726562 144.933594 C 46.132812 148.625 44.527344 152.3125 42.914062 155.996094 C 27.097656 192.179688 12 227.332031 12 227.972656 C 12 228.414062 13.890625 228.742188 16.417969 228.742188 L 20.835938 228.742188 L 22.023438 225.777344 C 22.675781 224.144531 23.871094 221.359375 24.671875 219.589844 C 28.023438 212.210938 30.101562 207.445312 31.890625 203.039062 C 32.933594 200.472656 34.078125 197.839844 34.4375 197.195312 C 34.796875 196.550781 37.5 190.304688 40.445312 183.320312 C 43.390625 176.335938 46.074219 170.113281 46.40625 169.496094 C 47.5 167.476562 57.75 143.546875 57.75 143.011719 C 57.75 142.730469 55.726562 142.496094 53.257812 142.496094 C 48.90625 142.496094 48.738281 142.570312 47.726562 144.933594 M 68.117188 144.558594 C 67.40625 146.253906 66.679688 147.941406 65.929688 149.621094 C 65.195312 151.269531 60.65625 161.734375 55.84375 172.871094 C 51.03125 184.007812 46.285156 194.898438 45.296875 197.074219 C 44.308594 199.25 42.644531 203.132812 41.59375 205.699219 C 39.507812 210.796875 39.523438 210.761719 35.6875 219.152344 C 34.234375 222.332031 32.828125 225.789062 32.566406 226.839844 C 32.09375 228.71875 32.140625 228.742188 36.585938 228.742188 C 39.488281 228.742188 41.222656 228.410156 41.46875 227.804688 C 41.675781 227.292969 49.847656 208.476562 59.628906 185.996094 C 69.40625 163.515625 77.582031 144.53125 77.789062 143.808594 C 78.125 142.660156 77.601562 142.496094 73.570312 142.496094 C 69.253906 142.496094 68.914062 142.625 68.117188 144.558594 M 290.242188 185.246094 L 290.242188 228.066406 L 294.929688 227.84375 L 299.617188 227.617188 L 299.992188 207.617188 L 300.367188 187.621094 L 302.617188 184.449219 C 306.53125 178.929688 313.179688 176.898438 318 179.742188 C 321.878906 182.035156 322.074219 183.195312 322.484375 206.246094 L 322.867188 227.617188 L 327.554688 227.84375 L 332.242188 228.066406 L 332.242188 205.984375 C 332.242188 186.082031 332.09375 183.429688 330.753906 179.085938 C 328.351562 171.316406 323.210938 167.261719 315.734375 167.25 C 310.199219 167.242188 304.527344 170.03125 301.785156 174.117188 C 300.367188 176.230469 300.367188 176.214844 299.992188 159.550781 L 299.617188 142.871094 L 290.242188 142.425781 Z M 80.246094 163.121094 L 80.246094 167.996094 L 107.355469 167.996094 L 107.113281 187.683594 C 106.859375 208.34375 106.761719 208.96875 103.214844 212.871094 C 98.519531 218.035156 87.472656 218.035156 82.777344 212.871094 C 80.496094 210.359375 79.71875 208.59375 79.113281 204.558594 L 78.578125 200.996094 L 73.414062 200.996094 C 70.574219 200.996094 68.25 201.21875 68.25 201.496094 C 68.25 201.769531 68.628906 204.21875 69.09375 206.933594 C 71.351562 220.074219 79.3125 226.523438 93.214844 226.46875 C 104.074219 226.425781 110.527344 222.980469 114.925781 214.875 L 117.371094 210.371094 L 117.605469 184.308594 L 117.835938 158.246094 L 80.246094 158.246094 Z M 172.496094 193.902344 L 172.496094 228.0625 L 182.621094 227.617188 L 182.828125 215.433594 L 183.03125 203.246094 L 200.671875 203.246094 L 206.671875 215.433594 L 212.675781 227.617188 L 218.082031 227.839844 C 221.414062 227.976562 223.492188 227.765625 223.492188 227.292969 C 223.492188 226.871094 220.792969 221.089844 217.492188 214.449219 C 214.195312 207.804688 211.496094 201.914062 211.496094 201.359375 C 211.496094 200.800781 212.15625 200.136719 212.96875 199.878906 C 215.191406 199.171875 220.371094 192.914062 221.277344 189.835938 C 222.539062 185.550781 222.957031 179.054688 222.113281 176.886719 C 221.121094 174.335938 215.40625 171.601562 207.253906 169.78125 L 201.140625 168.417969 L 207.839844 166.808594 C 211.523438 165.925781 214.707031 165.03125 214.914062 164.824219 C 215.121094 164.617188 214.414062 163.875 213.34375 163.171875 C 209.652344 160.753906 202.058594 159.773438 186.933594 159.757812 L 172.496094 159.746094 Z M 138.746094 167.691406 C 133.238281 169.152344 129.132812 172.199219 126.222656 176.980469 C 118.546875 189.597656 120.640625 212.816406 130.207031 221.21875 C 137.707031 227.804688 152.398438 228.191406 159.878906 222.003906 C 162.839844 219.554688 167.246094 211.628906 167.246094 208.75 C 167.246094 207.105469 166.960938 206.996094 162.761719 206.996094 C 158.335938 206.996094 158.257812 207.03125 156.832031 209.808594 C 154.722656 213.914062 151.410156 215.601562 145.441406 215.609375 C 137.574219 215.625 133.078125 211.789062 131.601562 203.808594 L 131.078125 200.996094 L 167.246094 200.996094 L 167.246094 193.9375 C 167.246094 178.683594 161.28125 169.785156 149.398438 167.320312 C 144.5 166.304688 143.882812 166.324219 138.746094 167.6875 M 260.617188 167.945312 C 261.785156 168.410156 261.121094 168.75 257.617188 169.472656 C 250.628906 170.921875 248.714844 171.996094 246.109375 175.933594 C 242.328125 181.636719 240.742188 187.875 240.742188 197.027344 C 240.742188 217.296875 248.683594 227.554688 264.367188 227.554688 C 276.542969 227.554688 284.28125 221.082031 286.03125 209.433594 L 286.511719 206.246094 L 281.71875 206.246094 C 277.050781 206.246094 276.917969 206.296875 276.5 208.390625 C 275.136719 215.203125 265.835938 218.765625 258.367188 215.332031 C 252.175781 212.492188 250.273438 208.242188 250.246094 197.199219 C 250.226562 190.472656 250.480469 188.746094 251.921875 185.765625 C 254.34375 180.761719 257.214844 178.964844 263.320312 178.617188 C 270.394531 178.21875 273.371094 179.75 275.792969 185.039062 L 277.636719 189.066406 L 281.875 188.84375 L 286.117188 188.621094 L 285.886719 185.246094 C 285.585938 180.820312 282.339844 174.390625 279.015625 171.644531 C 277.558594 170.4375 274.703125 168.957031 272.667969 168.347656 C 268.832031 167.203125 257.824219 166.835938 260.617188 167.945312 M 182.996094 181.4375 L 182.996094 193.496094 L 193.105469 193.496094 C 205.402344 193.496094 208.546875 192.550781 210.777344 188.179688 C 212.585938 184.636719 212.636719 179.078125 210.894531 175.496094 C 208.734375 171.046875 205.328125 169.910156 193.308594 169.625 L 182.996094 169.382812 Z M 140.761719 177.910156 C 135.839844 179.214844 131.246094 185.632812 131.246094 191.203125 C 131.246094 191.730469 135.761719 191.996094 144.746094 191.996094 C 159.8125 191.996094 159.054688 192.316406 157.460938 186.582031 C 156.273438 182.296875 153.417969 179.429688 149.054688 178.132812 C 144.761719 176.859375 144.726562 176.855469 140.761719 177.910156 M 235.394531 184.871094 C 234.722656 186.519531 233.738281 189.894531 233.214844 192.371094 C 231.957031 198.265625 231.296875 198.867188 230.664062 194.675781 C 230.382812 192.785156 229.523438 189.46875 228.753906 187.304688 L 227.351562 183.371094 L 227.296875 205.683594 L 227.242188 227.992188 L 231.765625 227.992188 C 234.714844 227.992188 236.417969 227.664062 236.652344 227.046875 C 236.851562 226.527344 236.925781 216.148438 236.816406 203.984375 C 236.625 182.707031 236.570312 181.984375 235.394531 184.871094 M 343.867188 187.597656 C 341.664062 188.910156 341.265625 189.777344 341.253906 193.253906 C 341.242188 195.753906 341.640625 196.699219 343.21875 197.941406 C 346.429688 200.46875 354.46875 199.863281 356.417969 196.945312 C 357.347656 195.546875 357.046875 190.109375 355.957031 188.617188 C 354.691406 186.886719 346.253906 186.175781 343.867188 187.597656 M 343.867188 216.890625 C 341.675781 218.132812 341.265625 219.015625 341.253906 222.503906 C 341.238281 226.007812 342.523438 227.757812 345.605469 228.429688 C 349.210938 229.21875 349.492188 229.425781 349.492188 231.296875 C 349.492188 235.183594 348.246094 236.855469 344.839844 237.527344 C 341.6875 238.152344 341.617188 238.234375 341.617188 241.140625 L 341.617188 244.117188 L 345.65625 243.898438 C 347.875 243.777344 350.800781 243.214844 352.15625 242.648438 C 356.003906 241.042969 357.050781 238.734375 357.511719 230.851562 C 358.007812 222.324219 357.050781 218.105469 354.332031 216.867188 C 351.910156 215.761719 345.832031 215.773438 343.867188 216.890625 " fill-opacity="1" fill-rule="evenodd"/></g><g clip-path="url(#1f9f898184)"><path fill="#fec126" d="M 231.652344 146.664062 C 231.652344 146.664062 231.769531 167.078125 212.964844 167.257812 C 212.964844 167.257812 231.769531 167.078125 231.652344 187.492188 C 231.652344 187.492188 231.652344 167.136719 250.578125 167.078125 C 250.578125 167.078125 231.652344 167.136719 231.652344 146.664062 Z M 231.652344 146.664062 " fill-opacity="1" fill-rule="nonzero"/></g></svg>